<mxfile host="app.diagrams.net" modified="2023-07-10T20:27:03.980Z" agent="Mozilla/5.0 (Windows NT 10.0; Win64; x64) AppleWebKit/537.36 (KHTML, like Gecko) Chrome/114.0.21608.199 Safari/537.36 Avast/114.0.21608.199" etag="asISzBeUmV_vYcfbFb6L" version="21.6.1" type="device">
  <diagram id="cBkF3jK7OErtoik1DSgT" name="Página-1">
    <mxGraphModel dx="1434" dy="764" grid="1" gridSize="10" guides="1" tooltips="1" connect="1" arrows="1" fold="1" page="1" pageScale="1" pageWidth="827" pageHeight="1169" math="0" shadow="0">
      <root>
        <mxCell id="0" />
        <mxCell id="1" parent="0" />
        <mxCell id="oT0GEYovz1576cDjexH0-2" value="" style="rounded=0;whiteSpace=wrap;html=1;dashed=1;" vertex="1" parent="1">
          <mxGeometry x="650" y="300" width="160" height="100" as="geometry" />
        </mxCell>
        <mxCell id="w5pfArC49CllzXAZS-M3-73" value="" style="rounded=0;whiteSpace=wrap;html=1;dashed=1;" parent="1" vertex="1">
          <mxGeometry x="140" y="300" width="160" height="100" as="geometry" />
        </mxCell>
        <mxCell id="w5pfArC49CllzXAZS-M3-70" value="" style="rounded=0;whiteSpace=wrap;html=1;dashed=1;" parent="1" vertex="1">
          <mxGeometry x="340" y="630" width="160" height="100" as="geometry" />
        </mxCell>
        <mxCell id="w5pfArC49CllzXAZS-M3-59" value="" style="rounded=0;whiteSpace=wrap;html=1;dashed=1;" parent="1" vertex="1">
          <mxGeometry x="340" y="80" width="160" height="540" as="geometry" />
        </mxCell>
        <mxCell id="w5pfArC49CllzXAZS-M3-1" value="Health Check API" style="rounded=0;whiteSpace=wrap;html=1;fillColor=#D4E1F5;" parent="1" vertex="1">
          <mxGeometry x="670" y="330" width="120" height="60" as="geometry" />
        </mxCell>
        <mxCell id="w5pfArC49CllzXAZS-M3-39" style="edgeStyle=orthogonalEdgeStyle;rounded=0;orthogonalLoop=1;jettySize=auto;html=1;entryX=0;entryY=0.5;entryDx=0;entryDy=0;" parent="1" source="w5pfArC49CllzXAZS-M3-2" target="w5pfArC49CllzXAZS-M3-1" edge="1">
          <mxGeometry relative="1" as="geometry" />
        </mxCell>
        <mxCell id="w5pfArC49CllzXAZS-M3-2" value="&lt;font color=&quot;#ffffff&quot;&gt;MySQL&lt;/font&gt;" style="shape=cylinder3;whiteSpace=wrap;html=1;boundedLbl=1;backgroundOutline=1;size=15;fillColor=#FF3333;" parent="1" vertex="1">
          <mxGeometry x="520" y="100" width="60" height="80" as="geometry" />
        </mxCell>
        <mxCell id="w5pfArC49CllzXAZS-M3-40" style="edgeStyle=orthogonalEdgeStyle;rounded=0;orthogonalLoop=1;jettySize=auto;html=1;entryX=0;entryY=0.5;entryDx=0;entryDy=0;" parent="1" source="w5pfArC49CllzXAZS-M3-3" target="w5pfArC49CllzXAZS-M3-1" edge="1">
          <mxGeometry relative="1" as="geometry" />
        </mxCell>
        <mxCell id="w5pfArC49CllzXAZS-M3-3" value="&lt;font color=&quot;#ffffff&quot;&gt;MySQL&lt;/font&gt;" style="shape=cylinder3;whiteSpace=wrap;html=1;boundedLbl=1;backgroundOutline=1;size=15;fillColor=#FF8000;" parent="1" vertex="1">
          <mxGeometry x="520" y="210" width="60" height="80" as="geometry" />
        </mxCell>
        <mxCell id="w5pfArC49CllzXAZS-M3-41" style="edgeStyle=orthogonalEdgeStyle;rounded=0;orthogonalLoop=1;jettySize=auto;html=1;entryX=0;entryY=0.5;entryDx=0;entryDy=0;" parent="1" source="w5pfArC49CllzXAZS-M3-4" target="w5pfArC49CllzXAZS-M3-1" edge="1">
          <mxGeometry relative="1" as="geometry" />
        </mxCell>
        <mxCell id="w5pfArC49CllzXAZS-M3-4" value="&lt;font color=&quot;#ffffff&quot;&gt;MySQL&lt;/font&gt;" style="shape=cylinder3;whiteSpace=wrap;html=1;boundedLbl=1;backgroundOutline=1;size=15;fillColor=#00994D;" parent="1" vertex="1">
          <mxGeometry x="520" y="320" width="60" height="80" as="geometry" />
        </mxCell>
        <mxCell id="w5pfArC49CllzXAZS-M3-42" style="edgeStyle=orthogonalEdgeStyle;rounded=0;orthogonalLoop=1;jettySize=auto;html=1;entryX=0;entryY=0.5;entryDx=0;entryDy=0;" parent="1" source="w5pfArC49CllzXAZS-M3-5" target="w5pfArC49CllzXAZS-M3-1" edge="1">
          <mxGeometry relative="1" as="geometry" />
        </mxCell>
        <mxCell id="w5pfArC49CllzXAZS-M3-5" value="&lt;font color=&quot;#ffffff&quot;&gt;MySQL&lt;/font&gt;" style="shape=cylinder3;whiteSpace=wrap;html=1;boundedLbl=1;backgroundOutline=1;size=15;fillColor=#99004D;" parent="1" vertex="1">
          <mxGeometry x="525.5" y="430" width="60" height="80" as="geometry" />
        </mxCell>
        <mxCell id="w5pfArC49CllzXAZS-M3-43" style="edgeStyle=orthogonalEdgeStyle;rounded=0;orthogonalLoop=1;jettySize=auto;html=1;entryX=0;entryY=0.5;entryDx=0;entryDy=0;" parent="1" source="w5pfArC49CllzXAZS-M3-6" target="w5pfArC49CllzXAZS-M3-1" edge="1">
          <mxGeometry relative="1" as="geometry" />
        </mxCell>
        <mxCell id="w5pfArC49CllzXAZS-M3-6" value="&lt;font color=&quot;#ffffff&quot;&gt;MySQL&lt;/font&gt;" style="shape=cylinder3;whiteSpace=wrap;html=1;boundedLbl=1;backgroundOutline=1;size=15;fillColor=#007FFF;" parent="1" vertex="1">
          <mxGeometry x="525.5" y="540" width="60" height="80" as="geometry" />
        </mxCell>
        <mxCell id="w5pfArC49CllzXAZS-M3-44" style="edgeStyle=orthogonalEdgeStyle;rounded=0;orthogonalLoop=1;jettySize=auto;html=1;entryX=0;entryY=0.5;entryDx=0;entryDy=0;" parent="1" source="w5pfArC49CllzXAZS-M3-7" target="w5pfArC49CllzXAZS-M3-1" edge="1">
          <mxGeometry relative="1" as="geometry" />
        </mxCell>
        <mxCell id="w5pfArC49CllzXAZS-M3-7" value="&lt;font color=&quot;#ffffff&quot;&gt;MySQL&lt;/font&gt;" style="shape=cylinder3;whiteSpace=wrap;html=1;boundedLbl=1;backgroundOutline=1;size=15;fillColor=#CC00CC;" parent="1" vertex="1">
          <mxGeometry x="525.5" y="650" width="60" height="80" as="geometry" />
        </mxCell>
        <mxCell id="w5pfArC49CllzXAZS-M3-33" style="edgeStyle=orthogonalEdgeStyle;rounded=0;orthogonalLoop=1;jettySize=auto;html=1;" parent="1" source="w5pfArC49CllzXAZS-M3-14" target="w5pfArC49CllzXAZS-M3-2" edge="1">
          <mxGeometry relative="1" as="geometry" />
        </mxCell>
        <mxCell id="w5pfArC49CllzXAZS-M3-14" value="&lt;font color=&quot;#ffffff&quot;&gt;Servicio agua&lt;/font&gt;" style="rounded=0;whiteSpace=wrap;html=1;fillColor=#FF3333;" parent="1" vertex="1">
          <mxGeometry x="350" y="110" width="120" height="60" as="geometry" />
        </mxCell>
        <mxCell id="w5pfArC49CllzXAZS-M3-34" style="edgeStyle=orthogonalEdgeStyle;rounded=0;orthogonalLoop=1;jettySize=auto;html=1;" parent="1" source="w5pfArC49CllzXAZS-M3-16" target="w5pfArC49CllzXAZS-M3-3" edge="1">
          <mxGeometry relative="1" as="geometry" />
        </mxCell>
        <mxCell id="w5pfArC49CllzXAZS-M3-16" value="&lt;font color=&quot;#ffffff&quot;&gt;Servicio Internet&lt;/font&gt;" style="rounded=0;whiteSpace=wrap;html=1;fillColor=#FF8000;" parent="1" vertex="1">
          <mxGeometry x="350" y="220" width="120" height="60" as="geometry" />
        </mxCell>
        <mxCell id="w5pfArC49CllzXAZS-M3-35" style="edgeStyle=orthogonalEdgeStyle;rounded=0;orthogonalLoop=1;jettySize=auto;html=1;" parent="1" source="w5pfArC49CllzXAZS-M3-17" target="w5pfArC49CllzXAZS-M3-4" edge="1">
          <mxGeometry relative="1" as="geometry" />
        </mxCell>
        <mxCell id="w5pfArC49CllzXAZS-M3-17" value="&lt;font color=&quot;#ffffff&quot;&gt;Servicio Luz&lt;/font&gt;" style="rounded=0;whiteSpace=wrap;html=1;fillColor=#00994D;" parent="1" vertex="1">
          <mxGeometry x="350" y="330" width="120" height="60" as="geometry" />
        </mxCell>
        <mxCell id="w5pfArC49CllzXAZS-M3-36" style="edgeStyle=orthogonalEdgeStyle;rounded=0;orthogonalLoop=1;jettySize=auto;html=1;" parent="1" source="w5pfArC49CllzXAZS-M3-18" target="w5pfArC49CllzXAZS-M3-5" edge="1">
          <mxGeometry relative="1" as="geometry" />
        </mxCell>
        <mxCell id="w5pfArC49CllzXAZS-M3-18" value="&lt;font color=&quot;#ffffff&quot;&gt;Servicio Educación&lt;/font&gt;" style="rounded=0;whiteSpace=wrap;html=1;fillColor=#660033;" parent="1" vertex="1">
          <mxGeometry x="354" y="440" width="120" height="60" as="geometry" />
        </mxCell>
        <mxCell id="w5pfArC49CllzXAZS-M3-37" style="edgeStyle=orthogonalEdgeStyle;rounded=0;orthogonalLoop=1;jettySize=auto;html=1;entryX=0;entryY=0.5;entryDx=0;entryDy=0;entryPerimeter=0;" parent="1" source="w5pfArC49CllzXAZS-M3-19" target="w5pfArC49CllzXAZS-M3-6" edge="1">
          <mxGeometry relative="1" as="geometry" />
        </mxCell>
        <mxCell id="w5pfArC49CllzXAZS-M3-19" value="&lt;font color=&quot;#ffffff&quot;&gt;Servicio de telefonía&lt;/font&gt;" style="rounded=0;whiteSpace=wrap;html=1;fillColor=#007FFF;" parent="1" vertex="1">
          <mxGeometry x="355.5" y="550" width="120" height="60" as="geometry" />
        </mxCell>
        <mxCell id="w5pfArC49CllzXAZS-M3-38" style="edgeStyle=orthogonalEdgeStyle;rounded=0;orthogonalLoop=1;jettySize=auto;html=1;" parent="1" source="w5pfArC49CllzXAZS-M3-20" target="w5pfArC49CllzXAZS-M3-7" edge="1">
          <mxGeometry relative="1" as="geometry">
            <Array as="points">
              <mxPoint x="490" y="690" />
              <mxPoint x="490" y="690" />
            </Array>
          </mxGeometry>
        </mxCell>
        <mxCell id="w5pfArC49CllzXAZS-M3-20" value="&lt;font color=&quot;#ffffff&quot;&gt;Clientes&lt;/font&gt;" style="rounded=0;whiteSpace=wrap;html=1;fillColor=#FF00FF;" parent="1" vertex="1">
          <mxGeometry x="355.5" y="660" width="120" height="60" as="geometry" />
        </mxCell>
        <mxCell id="w5pfArC49CllzXAZS-M3-51" style="edgeStyle=orthogonalEdgeStyle;rounded=0;orthogonalLoop=1;jettySize=auto;html=1;entryX=0;entryY=0.5;entryDx=0;entryDy=0;" parent="1" source="w5pfArC49CllzXAZS-M3-45" target="w5pfArC49CllzXAZS-M3-14" edge="1">
          <mxGeometry relative="1" as="geometry" />
        </mxCell>
        <mxCell id="w5pfArC49CllzXAZS-M3-52" style="edgeStyle=orthogonalEdgeStyle;rounded=0;orthogonalLoop=1;jettySize=auto;html=1;entryX=0;entryY=0.5;entryDx=0;entryDy=0;" parent="1" source="w5pfArC49CllzXAZS-M3-45" target="w5pfArC49CllzXAZS-M3-16" edge="1">
          <mxGeometry relative="1" as="geometry" />
        </mxCell>
        <mxCell id="w5pfArC49CllzXAZS-M3-53" style="edgeStyle=orthogonalEdgeStyle;rounded=0;orthogonalLoop=1;jettySize=auto;html=1;" parent="1" source="w5pfArC49CllzXAZS-M3-45" target="w5pfArC49CllzXAZS-M3-17" edge="1">
          <mxGeometry relative="1" as="geometry" />
        </mxCell>
        <mxCell id="w5pfArC49CllzXAZS-M3-54" style="edgeStyle=orthogonalEdgeStyle;rounded=0;orthogonalLoop=1;jettySize=auto;html=1;entryX=0;entryY=0.5;entryDx=0;entryDy=0;" parent="1" source="w5pfArC49CllzXAZS-M3-45" target="w5pfArC49CllzXAZS-M3-18" edge="1">
          <mxGeometry relative="1" as="geometry" />
        </mxCell>
        <mxCell id="w5pfArC49CllzXAZS-M3-55" style="edgeStyle=orthogonalEdgeStyle;rounded=0;orthogonalLoop=1;jettySize=auto;html=1;entryX=0;entryY=0.5;entryDx=0;entryDy=0;" parent="1" source="w5pfArC49CllzXAZS-M3-45" target="w5pfArC49CllzXAZS-M3-19" edge="1">
          <mxGeometry relative="1" as="geometry" />
        </mxCell>
        <mxCell id="w5pfArC49CllzXAZS-M3-56" style="edgeStyle=orthogonalEdgeStyle;rounded=0;orthogonalLoop=1;jettySize=auto;html=1;entryX=0;entryY=0.5;entryDx=0;entryDy=0;" parent="1" source="w5pfArC49CllzXAZS-M3-45" target="w5pfArC49CllzXAZS-M3-20" edge="1">
          <mxGeometry relative="1" as="geometry">
            <Array as="points">
              <mxPoint x="318" y="360" />
              <mxPoint x="318" y="690" />
            </Array>
          </mxGeometry>
        </mxCell>
        <mxCell id="w5pfArC49CllzXAZS-M3-45" value="Frontend" style="rounded=0;whiteSpace=wrap;html=1;fillColor=#D4E1F5;" parent="1" vertex="1">
          <mxGeometry x="160" y="330" width="120" height="60" as="geometry" />
        </mxCell>
        <mxCell id="w5pfArC49CllzXAZS-M3-47" style="rounded=0;orthogonalLoop=1;jettySize=auto;html=1;entryX=0;entryY=0.5;entryDx=0;entryDy=0;" parent="1" source="w5pfArC49CllzXAZS-M3-57" target="w5pfArC49CllzXAZS-M3-45" edge="1">
          <mxGeometry relative="1" as="geometry">
            <mxPoint x="70.70000000000005" y="304.9999999999999" as="sourcePoint" />
          </mxGeometry>
        </mxCell>
        <mxCell id="w5pfArC49CllzXAZS-M3-57" value="Usuario" style="shape=umlActor;verticalLabelPosition=bottom;verticalAlign=top;html=1;outlineConnect=0;" parent="1" vertex="1">
          <mxGeometry x="50" y="330" width="30" height="60" as="geometry" />
        </mxCell>
        <mxCell id="w5pfArC49CllzXAZS-M3-61" value="Python / Django" style="text;strokeColor=none;fillColor=none;align=left;verticalAlign=middle;spacingLeft=4;spacingRight=4;overflow=hidden;points=[[0,0.5],[1,0.5]];portConstraint=eastwest;rotatable=0;whiteSpace=wrap;html=1;" parent="1" vertex="1">
          <mxGeometry x="359" y="80" width="110" height="30" as="geometry" />
        </mxCell>
        <mxCell id="w5pfArC49CllzXAZS-M3-71" value="&lt;span style=&quot;color: rgb(0, 0, 0); font-family: Helvetica; font-size: 12px; font-style: normal; font-variant-ligatures: normal; font-variant-caps: normal; font-weight: 400; letter-spacing: normal; orphans: 2; text-align: left; text-indent: 0px; text-transform: none; widows: 2; word-spacing: 0px; -webkit-text-stroke-width: 0px; background-color: rgb(251, 251, 251); text-decoration-thickness: initial; text-decoration-style: initial; text-decoration-color: initial; float: none; display: inline !important;&quot;&gt;C# / . Net&lt;/span&gt;" style="text;whiteSpace=wrap;html=1;" parent="1" vertex="1">
          <mxGeometry x="370" y="630" width="120" height="40" as="geometry" />
        </mxCell>
        <mxCell id="w5pfArC49CllzXAZS-M3-72" value="js/ React" style="text;whiteSpace=wrap;html=1;" parent="1" vertex="1">
          <mxGeometry x="190" y="300" width="80" height="30" as="geometry" />
        </mxCell>
        <mxCell id="oT0GEYovz1576cDjexH0-1" value="Python / flask" style="text;whiteSpace=wrap;" vertex="1" parent="1">
          <mxGeometry x="690" y="300" width="110" height="40" as="geometry" />
        </mxCell>
      </root>
    </mxGraphModel>
  </diagram>
</mxfile>
